<?xml version="1.0" encoding="UTF-8"?>
<svg width="32" height="32" viewBox="0 0 32 32" fill="none" xmlns="http://www.w3.org/2000/svg">
    <!-- Background circle -->
    <circle cx="16" cy="16" r="16" fill="#FF6719"/>
    
    <!-- S shape with circuit pattern -->
    <path d="M20 10C20 8 18.5 7 16.5 7C14.5 7 13 8 13 10C13 12 14.5 12.5 16.5 13C18.5 13.5 20 14 20 16C20 18 18.5 19 16.5 19C14.5 19 13 18 13 16" 
          stroke="white" 
          stroke-width="2.5" 
          fill="none"/>
    
    <!-- Circuit dots and lines -->
    <circle cx="13" cy="10" r="1" fill="white"/>
    <circle cx="20" cy="16" r="1" fill="white"/>
    <circle cx="16.5" cy="13" r="1" fill="white"/>
    <line x1="13" y1="10" x2="16.5" y2="13" stroke="white" stroke-width="0.5"/>
    <line x1="16.5" y1="13" x2="20" y2="16" stroke="white" stroke-width="0.5"/>
    
    <!-- Additional circuit elements -->
    <circle cx="18" cy="11.5" r="0.5" fill="white"/>
    <circle cx="15" cy="14.5" r="0.5" fill="white"/>
    <circle cx="18" cy="17.5" r="0.5" fill="white"/>
</svg>
